<svg width="23" height="21" viewBox="0 0 23 21" fill="none" xmlns="http://www.w3.org/2000/svg">
<path d="M0 10.5C0 4.70101 4.70101 0 10.5 0H11.8556C17.6546 0 22.3556 4.70101 22.3556 10.5C22.3556 16.299 17.6546 21 11.8556 21H10.5C4.70102 21 0 16.299 0 10.5Z" fill="#E0E0E0"/>
<path d="M0 10.5C0 4.70101 4.70101 0 10.5 0H11.8556C17.6546 0 22.3556 4.70101 22.3556 10.5C22.3556 16.299 17.6546 21 11.8556 21H10.5C4.70102 21 0 16.299 0 10.5Z" fill="#E0E0E0"/>
<path d="M6 10.1111H16.6408H6Z" fill="#E0E0E0"/>
<path d="M6 10.1111H16.6408" stroke="#4C65E4" stroke-linecap="round" stroke-linejoin="round"/>
<path d="M11.3436 5L11.3295 15.2222L11.3436 5Z" fill="#E0E0E0"/>
<path d="M11.3436 5L11.3295 15.2222" stroke="#4C65E4" stroke-linecap="round" stroke-linejoin="round"/>
</svg>
